<svg xmlns="http://www.w3.org/2000/svg" xmlns:xlink="http://www.w3.org/1999/xlink" width="500" zoomAndPan="magnify" viewBox="0 0 375 374.999991" height="500" preserveAspectRatio="xMidYMid meet" version="1.0"><path fill="#ffb8c7" d="M 180.890625 324.777344 C 177.332031 324.757812 175.039062 326.597656 172.800781 328.527344 C 170.792969 330.253906 168.78125 331.964844 166.84375 333.765625 C 165.359375 335.148438 163.824219 335.121094 162.585938 333.742188 C 161.417969 332.445312 161.289062 330.789062 162.519531 329.316406 C 163.464844 328.191406 164.480469 327.125 165.480469 326.042969 C 166.960938 324.4375 168.460938 322.84375 170.113281 321.074219 C 165.945312 317.078125 161.992188 313.171875 157.914062 309.402344 C 141.378906 294.136719 125.878906 277.855469 110.828125 261.160156 C 96.367188 245.128906 82.15625 228.859375 69.621094 211.230469 C 62.554688 201.289062 56.117188 190.949219 50.484375 180.113281 C 40.164062 160.253906 35.0625 139.175781 36.753906 116.8125 C 38.101562 98.96875 43.164062 82.136719 54.175781 67.703125 C 63.648438 55.289062 76.003906 47.695312 91.949219 45.96875 C 105.863281 44.464844 118.464844 47.847656 130.222656 54.722656 C 149.019531 65.703125 162.886719 81.316406 172.140625 101.015625 C 175.996094 109.214844 179.816406 117.441406 183.890625 126.171875 C 184.230469 124.296875 184.574219 122.710938 184.800781 121.113281 C 187.980469 98.789062 196.96875 79.214844 212.710938 62.972656 C 223.171875 52.179688 236.019531 45.726562 250.894531 43.640625 C 277.769531 39.867188 299.691406 48.957031 316.660156 69.902344 C 322.148438 76.667969 325.796875 84.503906 328.125 93.003906 C 329.710938 98.785156 332.152344 104.332031 334.125 110.011719 C 336.058594 115.566406 337.28125 121.238281 337.796875 127.152344 C 339.886719 150.921875 332.1875 171.996094 320.28125 191.890625 C 312.277344 205.261719 302.800781 217.574219 292.746094 229.488281 C 282.296875 241.871094 271.007812 253.433594 259.152344 264.402344 C 246.53125 276.074219 233.328125 287.105469 220.386719 298.433594 C 211.335938 306.355469 202.304688 314.300781 193.277344 322.25 C 191.183594 324.09375 189.152344 326.003906 187.109375 327.898438 C 185.882812 329.039062 184.542969 330.070312 182.796875 329.464844 C 180.703125 328.738281 180.804688 326.839844 180.890625 324.777344 Z M 124.015625 264.15625 C 124.023438 264.257812 124.035156 264.359375 124.046875 264.460938 C 124.027344 264.382812 124.015625 264.304688 123.996094 264.226562 C 123.726562 263.933594 123.453125 263.644531 123.183594 263.351562 C 122.851562 263.082031 122.523438 262.808594 122.199219 262.535156 C 122.164062 261.324219 121.734375 260.558594 120.339844 260.886719 C 119.984375 260 119.8125 258.972656 119.257812 258.242188 C 114.835938 252.40625 110.085938 246.804688 105.921875 240.792969 C 98.582031 230.191406 91.457031 219.433594 84.476562 208.589844 C 75.46875 194.605469 68.144531 179.71875 62.582031 164.058594 C 55.71875 144.742188 52.964844 124.875 56.015625 104.386719 C 57.164062 96.65625 58.824219 89.101562 62.097656 81.988281 C 66.535156 72.351562 72.4375 63.851562 81.832031 58.394531 C 85.066406 56.515625 88.617188 55.195312 92.957031 53.191406 C 83.890625 54.09375 76.722656 57.082031 70.175781 61.773438 C 57.980469 70.507812 51.667969 83.144531 47.285156 96.878906 C 44.652344 105.140625 43.523438 113.734375 43.410156 122.46875 C 43.257812 134.007812 44.507812 145.359375 48.003906 156.339844 C 52.664062 170.988281 60.242188 184.222656 68.585938 197.046875 C 79.507812 213.828125 92.140625 229.273438 105.382812 244.238281 C 110.324219 249.820312 115.433594 255.25 120.464844 260.75 C 121.078125 261.3125 121.695312 261.875 122.300781 262.4375 C 122.640625 262.691406 122.980469 262.949219 123.324219 263.207031 C 123.542969 263.527344 123.78125 263.84375 124.015625 264.15625 Z M 298.796875 186.691406 L 298.59375 186.773438 C 298.59375 186.773438 298.675781 186.566406 298.675781 186.566406 C 299 186.261719 299.324219 185.957031 299.652344 185.65625 C 299.910156 185.042969 300.167969 184.425781 300.421875 183.8125 C 300.722656 183.238281 301.019531 182.660156 301.320312 182.082031 C 301.652344 181.8125 301.976562 181.539062 302.304688 181.269531 C 302.542969 180.636719 302.785156 180.007812 303.023438 179.375 C 303.671875 178.929688 304.578125 178.625 304.914062 178.011719 C 308.714844 171.097656 312.714844 164.269531 316.101562 157.15625 C 323.597656 141.421875 326.035156 124.757812 324.28125 107.457031 C 323.78125 102.527344 322.34375 99.378906 319.105469 96.363281 C 319.546875 98.023438 319.882812 99.429688 320.28125 100.816406 C 322.507812 108.53125 323.011719 116.410156 322.378906 124.359375 C 321.25 138.578125 316.710938 151.839844 310.644531 164.617188 C 308.261719 169.628906 305.648438 174.527344 303.144531 179.480469 C 302.902344 180.117188 302.664062 180.753906 302.421875 181.394531 C 302.082031 181.660156 301.746094 181.921875 301.40625 182.1875 C 301.121094 182.769531 300.832031 183.351562 300.542969 183.929688 C 300.285156 184.546875 300.03125 185.164062 299.777344 185.78125 C 299.449219 186.082031 299.125 186.386719 298.796875 186.691406 Z M 176.253906 313.671875 C 183.652344 306.945312 191.09375 300.71875 197.90625 293.871094 C 211.160156 280.554688 224.195312 267.019531 237.070312 253.332031 C 252.074219 237.394531 266.054688 220.574219 278.96875 202.894531 C 288.5 189.855469 297.347656 176.410156 304.378906 161.796875 C 308.992188 152.222656 312.542969 142.332031 314.421875 131.894531 C 316.207031 121.972656 316.550781 111.917969 313.75 102.171875 C 307.109375 79.082031 288.363281 68.621094 265.925781 71.222656 C 246.90625 73.425781 232.09375 83.738281 219.769531 97.957031 C 213.191406 105.542969 207.84375 113.972656 203.242188 122.824219 C 199.9375 129.175781 197.238281 135.867188 194.570312 142.523438 C 193.0625 146.277344 192.207031 150.296875 190.960938 154.164062 C 190.5625 155.40625 190.019531 156.660156 189.269531 157.722656 C 187.621094 160.066406 184.636719 160.039062 183.0625 157.628906 C 182.273438 156.425781 181.839844 154.980469 181.304688 153.613281 C 175.664062 139.304688 170.253906 124.902344 163.1875 111.183594 C 156.054688 97.332031 147.117188 84.898438 135.339844 74.640625 C 127.71875 68.003906 119.1875 63.054688 109.164062 60.8125 C 101.996094 59.207031 95.226562 59.871094 88.597656 62.980469 C 79.054688 67.457031 72.757812 75 68.609375 84.398438 C 62.8125 97.527344 60.828125 111.382812 61.667969 125.65625 C 62.253906 135.640625 63.660156 145.542969 66.757812 155.0625 C 73.984375 177.261719 84.839844 197.710938 97.90625 216.964844 C 105.722656 228.488281 113.992188 239.714844 122.40625 250.808594 C 128.609375 258.984375 135.269531 266.820312 141.917969 274.640625 C 148.765625 282.695312 155.832031 290.5625 162.816406 298.496094 C 167.261719 303.539062 171.730469 308.5625 176.253906 313.671875 Z M 182.644531 322.980469 C 183.261719 322.410156 183.785156 321.917969 184.3125 321.4375 C 192.960938 313.496094 201.328125 305.21875 210.320312 297.691406 C 225.292969 285.15625 240.320312 272.679688 254.488281 259.25 C 274.121094 240.640625 292.566406 220.941406 307.835938 198.445312 C 317.902344 183.617188 326.074219 167.980469 329.902344 150.355469 C 331.167969 144.539062 331.972656 138.605469 331.179688 132.449219 C 329.554688 138.402344 328.167969 144.222656 326.363281 149.910156 C 322.25 162.886719 315.449219 174.550781 308.050781 185.855469 C 299.695312 198.640625 290.265625 210.65625 280.15625 222.078125 C 270.234375 233.285156 260.117188 244.34375 249.632812 255.019531 C 239.765625 265.058594 229.273438 274.492188 219.097656 284.238281 C 207.335938 295.5 195.640625 306.84375 183.84375 318.082031 C 182.355469 319.5 181.992188 320.910156 182.644531 322.980469 Z M 311.152344 74.757812 C 310.269531 73.429688 309.953125 72.855469 309.539062 72.351562 C 301.574219 62.648438 291.425781 56.1875 279.507812 52.535156 C 270.824219 49.875 261.941406 49.378906 252.929688 50.675781 C 240.0625 52.53125 228.792969 57.652344 219.203125 66.484375 C 213.203125 72.015625 208.570312 78.582031 204.316406 85.484375 C 197.105469 97.179688 193.121094 109.96875 191.183594 123.472656 C 191.089844 124.15625 191.277344 124.886719 191.40625 126.488281 C 195.628906 115.597656 200.398438 106.050781 206.246094 97.0625 C 212.84375 86.925781 220.277344 77.5 230.074219 70.1875 C 239.839844 62.902344 250.675781 58.351562 262.917969 57.730469 C 276.515625 57.039062 289.035156 60.773438 300.617188 67.765625 C 303.9375 69.78125 307.09375 72.058594 311.152344 74.757812 Z M 311.152344 74.757812 " fill-opacity="1" fill-rule="nonzero"/></svg>